<?xml version="1.0" encoding="utf-8"?>
<!-- Generator: Adobe Illustrator 22.1.0, SVG Export Plug-In . SVG Version: 6.00 Build 0)  -->
<svg version="1.1" id="Layer_1" xmlns="http://www.w3.org/2000/svg" xmlns:xlink="http://www.w3.org/1999/xlink" x="0px" y="0px"
	 viewBox="0 0 60 40" style="enable-background:new 0 0 60 40;" xml:space="preserve">
<style type="text/css">
	.st0{fill:#FFFFFF;}
	.st1{fill:#D00F14;}
	.st2{fill:#00305B;}
</style>
<g>
	<rect class="st0" width="60" height="40"/>
	<polyline class="st1" points="60,16 33,16 33,0 27,0 27,16 0,16 0,24 27,24 27,40 33,40 33,24 60,24 	"/>
	<path class="st1" d="M40,26.7h4.5L60,37v3 M20,13.3h-4.5L0,3V0L20,13.3z M20,26.7h4.5L4.5,40H0L20,26.7z M40,13.3h-4.5L55.5,0H60
		L40,13.3z"/>
	<path class="st2" d="M0,26.7v8.9l13.3-8.9 M60,26.7v8.9l-13.3-8.9H60z M0,13.3V4.5l13.3,8.9H0z M60,13.3V4.5l-13.3,8.9H60z M25,40
		V27.8L6.7,40H25z M35,40V27.8L53.3,40H35z M25,0v12.2L6.7,0H25z M35,0v12.2L53.3,0H35z"/>
</g>
</svg>
