<?xml version="1.0" encoding="utf-8"?>
<!-- Generator: Adobe Illustrator 22.1.0, SVG Export Plug-In . SVG Version: 6.00 Build 0)  -->
<svg version="1.1" id="Layer_1" xmlns="http://www.w3.org/2000/svg" xmlns:xlink="http://www.w3.org/1999/xlink" x="0px" y="0px"
	 viewBox="0 0 60 40" style="enable-background:new 0 0 60 40;" xml:space="preserve">
<style type="text/css">
	.st0{fill:#010202;}
	.st1{fill:#E52421;}
	.st2{fill:#FFCC03;}
	.st3{fill:#FFFFFF;}
	.st4{fill:#D00F14;}
	.st5{fill:#00305B;}
</style>
<rect class="st0" width="60" height="13.3"/>
<rect y="13.3" class="st1" width="60" height="13.3"/>
<rect y="26.7" class="st2" width="60" height="13.3"/>
<rect x="-328.5" y="63" class="st3" width="146.8" height="128.5"/>
<polyline class="st4" points="-181.7,114.4 -247.7,114.4 -247.7,63 -262.4,63 -262.4,114.4 -328.5,114.4 -328.5,140.1 -262.4,140.1 
	-262.4,191.5 -247.7,191.5 -247.7,140.1 -181.7,140.1 "/>
<path class="st4" d="M-230.6,148.7h10.9l38,33.3v9.6 M-279.6,105.8h-10.9l-38-33.3V63L-279.6,105.8z M-279.6,148.7h10.9l-48.9,42.8
	h-10.9L-279.6,148.7z M-230.6,105.8h-10.9l48.9-42.8h10.9L-230.6,105.8z"/>
<path class="st5" d="M-328.5,148.7v28.5l32.5-28.5 M-181.7,148.7v28.5l-32.5-28.5H-181.7z M-328.5,105.8V77.4l32.5,28.5H-328.5z
	 M-181.7,105.8V77.4l-32.5,28.5H-181.7z M-267.3,191.5v-39.2l-44.8,39.2H-267.3z M-242.8,191.5v-39.2l44.8,39.2H-242.8z M-267.3,63
	v39.2L-312.1,63H-267.3z M-242.8,63v39.2l44.8-39.2H-242.8z"/>
</svg>
